<?xml version="1.0" standalone="no"?>
<!DOCTYPE svg PUBLIC "-//W3C//DTD SVG 20010904//EN"
 "http://www.w3.org/TR/2001/REC-SVG-20010904/DTD/svg10.dtd">
<svg version="1.0" xmlns="http://www.w3.org/2000/svg"
 width="300.000000pt" height="213.000000pt" viewBox="0 0 300.000000 213.000000"
 preserveAspectRatio="xMidYMid meet">
<metadata>
Created by potrace 1.10, written by Peter Selinger 2001-2011
</metadata>
<g transform="translate(0.000000,213.000000) scale(0.100000,-0.100000)"
fill="#000000" stroke="none">
<path d="M768 1685 c-32 -8 -89 -30 -128 -50 l-70 -35 0 -115 c0 -63 3 -115 6
-115 3 0 20 11 37 24 121 91 294 121 382 66 46 -28 70 -92 62 -164 -11 -108
-62 -173 -340 -436 l-196 -185 -1 -107 0 -108 400 0 400 0 0 110 0 110 -245 0
c-135 0 -245 3 -244 8 0 4 52 52 115 107 302 264 388 389 386 569 -1 81 -20
141 -60 197 -37 50 -68 74 -139 106 -52 24 -72 27 -183 30 -84 2 -144 -2 -182
-12z"/>
<path d="M1815 1687 c-96 -32 -159 -82 -217 -171 -77 -119 -116 -321 -104
-534 15 -274 90 -428 244 -504 57 -28 78 -33 162 -36 247 -10 393 113 456 383
28 119 26 428 -4 537 -43 160 -113 256 -220 306 -49 23 -72 27 -167 29 -71 2
-124 -2 -150 -10z m182 -207 c73 -44 105 -170 105 -410 0 -252 -35 -375 -117
-414 -77 -37 -152 14 -188 128 -20 64 -22 91 -22 281 0 189 2 217 22 280 26
82 44 110 87 136 40 24 73 24 113 -1z"/>
</g>
</svg>
